<?xml version="1.0" encoding="UTF-8"?>
<svg width="91px" height="61px" viewBox="0 0 91 61" version="1.1" xmlns="http://www.w3.org/2000/svg" xmlns:xlink="http://www.w3.org/1999/xlink">
    <!-- Generator: Sketch 54.1 (76490) - https://sketchapp.com -->
    <title>noun_quotes_953503</title>
    <desc>Created with Sketch.</desc>
    <g id="Page-1" stroke="none" stroke-width="1" fill="none" fill-rule="evenodd">
        <g id="noun_quotes_953503" fill="#E5E5E5" fill-rule="nonzero">
            <path d="M70.6,20.5 C81.6,20.5 90.5,29.5 90.5,40.5 C90.5,51.5 81.5,60.5 70.5,60.5 C59.5,60.5 50.5,51.5 50.5,40.5 C50.5,18.4 68.4,0.5 90.5,0.5 C90.5,0.5 77.4,5.4 70.6,20.5 Z M40.5,40.5 C40.5,51.5 31.5,60.5 20.5,60.5 C9.5,60.5 0.5,51.5 0.5,40.5 L0.5,40.5 C0.5,18.4 18.4,0.5 40.5,0.5 C40.5,0.5 27.4,5.4 20.6,20.5 C31.6,20.5 40.5,29.5 40.5,40.5 Z" id="Shape"></path>
        </g>
    </g>
</svg>